<?xml version="1.0" encoding="utf-8"?>
<svg version="1.1" xmlns="http://www.w3.org/2000/svg" xmlns:xlink="http://www.w3.org/1999/xlink" x="0px" y="0px"
	 viewBox="0 0 78 60" style="enable-background:new 0 0 78 60;" xml:space="preserve">
<style type="text/css">
	.st0{fill:none;stroke:#FFFFFF;stroke-width:2;stroke-linecap:round;stroke-linejoin:round;}
</style>
<g>
	<rect width="78" height="60"/>
</g>
<g>
	<path class="st0" d="M51,46.1l-3.7-17l7.3-7.3c3.1-3.1,4.2-7.3,3.1-9.4c-2.1-1-6.2,0-9.4,3.1L41,22.8l-17-3.7c-1-0.2-1.9,0.2-2.3,1
		l-0.6,1c-0.4,1-0.2,2.1,0.6,2.7l11,7.3l-4.2,6.2h-6.2l-2.1,2.1l6.2,4.2l4.2,6.2l2.1-2.1v-6.2l6.2-4.2l7.3,11c0.6,0.8,1.7,1,2.7,0.6
		l1-0.4C50.7,47.9,51.2,47.1,51,46.1z"/>
</g>
</svg>
