<?xml version="1.0" encoding="utf-8"?>
<!-- Generator: Adobe Illustrator 27.0.0, SVG Export Plug-In . SVG Version: 6.00 Build 0)  -->
<svg version="1.1" id="Warstwa_1" xmlns="http://www.w3.org/2000/svg" xmlns:xlink="http://www.w3.org/1999/xlink" x="0px" y="0px"
	 viewBox="0 0 142.3 70.1" style="enable-background:new 0 0 142.3 70.1;" xml:space="preserve">
<style type="text/css">
	.st0{fill:#EA5655;}
	.st1{fill:#FD5552;}
</style>
<g id="Ps2wB0.tif">
	<g>
		<path class="st0" d="M10.4,7.8c2.5,0,5.1,0,7.6,0c0.7,0,1,0.2,0.9,0.9c-0.1,0.8,0.3,0.9,0.9,0.9c1,0,1.8-0.5,2.7-1
			C23.6,8,24.7,7.8,26,7.8c3.2,0,6.5,0,9.7,0c2.4,0,4.4,0.8,6.1,2.5c1.3,1.3,2.7,2.6,4,4c0.4,0.5,0.9,0.6,1.5,0.6
			c4.9,0,9.7,0,14.6,0c0.8,0,1.1,0.2,1.1,1.1c0,6.9,0,13.8,0,20.7c0,0.8-0.2,1.1-1.1,1.1c-11.6,0-23.1,0-34.7,0
			c-0.9,0-1.2-0.2-1.2-1.2c0.1-3.1,0-6.2,0-9.3c0-0.6-0.1-0.9-0.8-0.9c-1.5-0.1-2.8-0.6-4.1-1.4c-0.1-0.1-0.3-0.2-0.4-0.3
			c-1.2-0.5-1.8-0.1-1.8,1.1c0,1.5,0.2,1.4-1.3,1.4c-2.5,0-5,0-7.4,0.1c0-0.1,0-0.3,0-0.4c0.4-0.3,0.2-0.8,0.2-1.2
			C10.3,19.6,10.4,13.7,10.4,7.8z M30.8,9.4c-1.6,0-3.2,0-4.8,0c-1.1,0-2.1,0.2-3,0.7c-1.1,0.6-2.2,1.2-3.6,1
			c-0.4-0.1-0.5,0.2-0.5,0.5c0,3.5,0,7,0,10.5c0,0.4,0.1,0.7,0.6,0.6c1.1-0.2,2,0.3,2.9,0.9c0.6,0.5,1.4,0.7,2.2,0.9
			c1.4,0.3,1.5,0.3,1.5-1.2c0-0.3,0-0.7,0-1c0.1-1.2,0-2.3-1.4-2.8c-0.3-0.1-1-0.3-0.5-1c0.4-0.6,0.7-0.8,1.4-0.3
			c1.8,1.3,4,1.2,5.6-0.2c0.5-0.4,0.8-0.4,1.2,0.1c1.3,1.4,2.7,2.7,4,4c0.4,0.4,0.7,0.8,1.2,0.9c0.8,0.3,1.6,0.1,2.1-0.6
			c0.6-0.7,0.5-1.7-0.2-2.4c-1.8-1.9-3.7-3.8-5.6-5.6c-0.4-0.4-0.5-0.6-0.1-1.1c0.5-0.5,0.8-0.6,1.2,0c0.9,1.3,2.1,1.7,3.7,1.5
			c1.3-0.1,2.6,0,4,0c0.3,0,0.8,0.2,0.9-0.1c0.2-0.4-0.3-0.6-0.5-0.8c-0.7-0.8-1.5-1.5-2.2-2.2c-1.4-1.5-3.1-2.3-5.1-2.3
			C34.2,9.4,32.5,9.4,30.8,9.4z M44.5,35.9c5.3,0,10.5,0,15.8,0c0.8,0,1-0.2,1-1c0-5.8,0-11.6,0-17.4c0-0.9-0.3-1-1.1-1
			c-6.9,0-13.7,0-20.6,0c-0.2,0-0.4,0-0.6,0c-0.4,0-0.4,0.2-0.2,0.4c0.6,0.6,1.1,1.4,2.3,1.4c4.3-0.1,8.6,0,12.9,0
			c0.5,0,1-0.1,1,0.7c0.1,2.4,1.2,3.6,3.7,3.7c0.6,0,0.7,0.2,0.7,0.8c0,1.8,0,3.6,0,5.4c0,0.6-0.1,0.8-0.7,0.8
			c-2.4,0.1-3.6,1.3-3.7,3.6c0,0.6-0.2,0.8-0.8,0.8c-6.5,0-13,0-19.6,0c-0.5,0-0.7-0.1-0.7-0.7c-0.2-2.4-1.3-3.6-3.7-3.7
			c-0.6,0-0.8-0.3-0.8-0.8c0-1.8,0.1-3.6,0-5.4c0-0.7,0.2-0.8,0.8-0.8c0.8,0,1.5-0.2,2.1-0.7c0.3-0.3,1-0.6,0.5-1.1
			c-0.5-0.5-0.8-1.6-1.9-1c-0.8,0.4-1.7,0.8-2.6,0.7c-0.7,0-0.8,0.3-0.8,0.9c0,4.5,0,8.9,0,13.4c0,0.8,0.2,1,1,1
			C33.9,35.9,39.2,35.9,44.5,35.9z M40.5,24.1c-1.9,1-3.5,0.8-4.9-0.6c-1-1-1-1-2.1-0.1c-0.2,0.2-0.4,0.4-0.7,0.4
			c-1.5,0.2-1.7,1.2-1.5,2.5c0,0.3,0,0.6,0,0.9c-0.1,0.6,0.2,0.9,0.8,1.1c1.7,0.6,2.9,1.8,3.4,3.5c0.1,0.5,0.4,0.6,0.9,0.6
			c5.5,0,11,0,16.5,0c0.5,0,0.7-0.1,0.8-0.6c0.4-1.4,1.2-2.7,2.6-3.1c1.6-0.5,1.7-1.5,1.6-2.8c0-0.3,0-0.5,0-0.8
			c0.1-0.5-0.1-0.8-0.7-1c-1.7-0.5-2.9-1.7-3.4-3.5c-0.2-0.6-0.5-0.7-1-0.7c-1.5,0-2.9,0-4.4,0c-2,0-4,0-6,0c-0.2,0-0.7-0.2-0.6,0.4
			c0.2,0.8,0,1.6-0.1,2.5c1.1-0.6,2.2-1.2,3.4-1c1.3,0.2,2.3,0.8,3.1,1.8c1.2,1.7,1.1,3.9-0.2,5.5c-1.2,1.4-3.4,1.9-5.1,1.1
			C40.6,29.3,39.9,27.6,40.5,24.1z M11.8,17.4c0,2.4,0,4.8,0,7.1c0,0.7,0.2,0.9,0.9,0.9c1.3,0,2.5,0,3.8,0c0.6,0,0.8-0.2,0.8-0.7
			c0-4.8,0-9.6,0-14.5c0-0.6-0.2-0.8-0.8-0.8c-1.3,0-2.5,0-3.8,0c-0.7,0-0.9,0.2-0.9,0.9C11.8,12.7,11.8,15,11.8,17.4z M47.2,26.2
			c0-1.5-1.2-2.7-2.7-2.7c-1.5,0-2.7,1.2-2.7,2.7c0,1.5,1.2,2.7,2.7,2.7C46,28.9,47.2,27.7,47.2,26.2z"/>
		<path class="st0" d="M62.9,51.8c0,2.6,0,5.2,0,7.8c0,0.7-0.2,0.9-0.9,0.8c-2.4,0-4.8,0-7.1,0c-0.5,0-0.8,0-0.7-0.6
			c0.1-0.7-0.3-0.7-0.7-0.4c-2.3,1.3-4.8,1.1-7.3,1.1c-2.5,0-5,0-7.4,0c-1.5,0-2.8-0.3-4.1-1.1c-5.1-3.1-10.2-6.1-15.3-9.2
			c-1.7-1-2.2-3-1.3-4.6c1-1.7,2.9-2.3,4.6-1.3c2.8,1.5,5.5,2.9,8.2,4.4c0.6,0.3,0.9,0.4,1.2-0.3c0.5-1,1.4-1.4,2.4-1.7
			c3.3-0.9,6.6-2,9.9-2.6c3-0.5,6.1-0.9,8.8,1.2c0.2,0.2,0.5,0.5,0.8,0.3c0.3-0.2,0.1-0.6,0.1-0.8c0-1.8,0-1.8,1.8-1.8
			c2,0,3.9,0,5.9,0c0.9,0,1.1,0.3,1.1,1.1C62.9,46.7,62.9,49.2,62.9,51.8C62.9,51.8,62.9,51.8,62.9,51.8z M43.8,58.9
			c1.3,0,2.5-0.1,3.8,0c2.1,0.2,4-0.3,5.9-1.2c0.5-0.2,0.7-0.4,0.7-1c0-2.8,0-5.5,0-8.3c0-0.3,0.1-0.6-0.2-0.7
			c-1.4-0.7-2.5-2-4.1-2.1c-1.5-0.1-3.2-0.3-4.7,0.1c-3.6,0.9-7.2,1.9-10.8,2.8c-0.8,0.2-1.2,0.8-1.2,1.7c0,0.8,0.3,1.5,1.1,1.8
			c0.6,0.2,1.1,0.1,1.7-0.1c2.8-0.7,5.6-1.5,8.4-2.2c0.6-0.2,0.8,0,0.9,0.5c0.1,0.4,0.4,0.8-0.2,1c-3.3,0.8-6.4,1.9-9.8,2.5
			c-1.4,0.3-2.8-0.6-3.4-1.9c-0.3-0.6-0.7-1-1.3-1.3c-2.8-1.5-5.6-3-8.4-4.5c-1.2-0.6-2.3-0.4-2.8,0.5c-0.6,1-0.2,2.1,1,2.8
			c4.6,2.8,9.3,5.5,13.8,8.3c1.6,1,3.3,1.7,5.2,1.5C40.9,58.8,42.4,58.9,43.8,58.9z M61.3,51.7c0-2.1,0-4.2,0-6.3
			c0-0.5-0.1-0.7-0.7-0.7c-1.4,0-2.7,0-4.1,0c-0.6,0-0.7,0.3-0.7,0.8c0,4.2,0,8.4,0,12.6c0,0.6,0.2,0.8,0.8,0.8c1.3,0,2.5,0,3.8,0
			c0.7,0,0.9-0.2,0.9-0.9C61.3,55.9,61.3,53.8,61.3,51.7z"/>
	</g>
	<g>
		<path class="st1" d="M72.9,39.2c-0.2,0-0.3,0-0.4-0.1c-0.1-0.1-0.1-0.2-0.1-0.4v-4.6c0-0.2,0-0.3,0.1-0.4c0.1-0.1,0.2-0.1,0.4-0.1
			h1.9c0.6,0,1.1,0.2,1.4,0.5c0.3,0.3,0.5,0.7,0.5,1.3c0,0.5-0.2,1-0.5,1.3c-0.3,0.3-0.8,0.5-1.4,0.5h-1.4v1.6c0,0.2,0,0.3-0.1,0.4
			C73.2,39.2,73,39.2,72.9,39.2z M73.4,36.3h1.3c0.4,0,0.6-0.1,0.8-0.2c0.2-0.2,0.3-0.4,0.3-0.7c0-0.3-0.1-0.5-0.3-0.7
			c-0.2-0.2-0.5-0.2-0.8-0.2h-1.3V36.3z"/>
		<path class="st1" d="M77.3,37.2c-0.1,0.1-0.2,0.1-0.3,0.1c-0.1,0-0.2,0-0.2-0.1c-0.1-0.1-0.1-0.1-0.1-0.2c0-0.1,0-0.2,0-0.2
			c0-0.1,0.1-0.1,0.2-0.2l2.7-1.5c0.1-0.1,0.2-0.1,0.3-0.1c0.1,0,0.2,0,0.2,0.1c0.1,0.1,0.1,0.1,0.1,0.2c0,0.1,0,0.2,0,0.2
			c0,0.1-0.1,0.1-0.2,0.2L77.3,37.2z M78,39.2c-0.2,0-0.3,0-0.4-0.1c-0.1-0.1-0.1-0.2-0.1-0.4v-4.6c0-0.2,0-0.3,0.1-0.4
			c0.1-0.1,0.2-0.1,0.4-0.1s0.3,0,0.4,0.1c0.1,0.1,0.1,0.2,0.1,0.4v4.2h2.3c0.1,0,0.3,0,0.3,0.1c0.1,0.1,0.1,0.2,0.1,0.3
			c0,0.1,0,0.2-0.1,0.3c-0.1,0.1-0.2,0.1-0.3,0.1H78z"/>
		<path class="st1" d="M81.9,39.2c-0.1,0-0.2,0-0.3-0.1c-0.1-0.1-0.1-0.1-0.1-0.2c0-0.1,0-0.2,0.1-0.3l2.1-4.6
			c0.1-0.2,0.2-0.3,0.2-0.3s0.2-0.1,0.3-0.1c0.1,0,0.2,0,0.3,0.1c0.1,0.1,0.2,0.2,0.2,0.3l2.1,4.6c0.1,0.1,0.1,0.2,0.1,0.3
			c0,0.1-0.1,0.2-0.1,0.2c-0.1,0.1-0.2,0.1-0.3,0.1c-0.1,0-0.3,0-0.3-0.1c-0.1-0.1-0.2-0.2-0.2-0.3l-0.5-1.2l0.4,0.3h-3.3l0.4-0.3
			l-0.5,1.2c-0.1,0.2-0.1,0.3-0.2,0.3C82.2,39.2,82,39.2,81.9,39.2z M84.2,34.7l-1.1,2.6l-0.2-0.3h2.6l-0.2,0.3L84.2,34.7L84.2,34.7
			z"/>
		<path class="st1" d="M89,39.2c-0.2,0-0.3,0-0.4-0.1c-0.1-0.1-0.1-0.2-0.1-0.4v-4.3h-1.5c-0.1,0-0.2,0-0.3-0.1
			c-0.1-0.1-0.1-0.2-0.1-0.3c0-0.1,0-0.2,0.1-0.3c0.1-0.1,0.2-0.1,0.3-0.1H91c0.1,0,0.2,0,0.3,0.1c0.1,0.1,0.1,0.2,0.1,0.3
			c0,0.1,0,0.2-0.1,0.3c-0.1,0.1-0.2,0.1-0.3,0.1h-1.5v4.3c0,0.2,0,0.3-0.1,0.4C89.3,39.2,89.1,39.2,89,39.2z"/>
		<path class="st1" d="M92.5,39.2c-0.2,0-0.3,0-0.4-0.1C92.1,39,92,38.9,92,38.7V34c0-0.2,0-0.3,0.1-0.4c0.1-0.1,0.2-0.1,0.3-0.1
			c0.1,0,0.2,0,0.3,0.1c0.1,0,0.1,0.1,0.2,0.2l3,3.9h-0.2V34c0-0.2,0-0.3,0.1-0.4c0.1-0.1,0.2-0.1,0.4-0.1c0.2,0,0.3,0,0.3,0.1
			c0.1,0.1,0.1,0.2,0.1,0.4v4.8c0,0.1,0,0.3-0.1,0.3c-0.1,0.1-0.2,0.1-0.3,0.1c-0.1,0-0.2,0-0.3-0.1c-0.1,0-0.1-0.1-0.2-0.2l-3-3.9
			H93v3.7c0,0.2,0,0.3-0.1,0.4S92.7,39.2,92.5,39.2z"/>
		<path class="st1" d="M100.5,39.2c-0.5,0-1-0.1-1.4-0.4c-0.4-0.2-0.7-0.6-0.9-1c-0.2-0.4-0.3-0.9-0.3-1.5c0-0.4,0.1-0.8,0.2-1.2
			c0.1-0.4,0.3-0.7,0.5-0.9c0.2-0.3,0.5-0.4,0.8-0.6c0.3-0.1,0.7-0.2,1.1-0.2c0.5,0,1,0.1,1.4,0.4c0.4,0.2,0.7,0.6,0.9,1
			c0.2,0.4,0.3,0.9,0.3,1.5c0,0.4-0.1,0.8-0.2,1.2c-0.1,0.4-0.3,0.7-0.5,0.9s-0.5,0.4-0.8,0.6C101.2,39.2,100.9,39.2,100.5,39.2z
			 M100.5,38.4c0.3,0,0.6-0.1,0.9-0.2c0.2-0.2,0.4-0.4,0.6-0.7c0.1-0.3,0.2-0.7,0.2-1.1c0-0.6-0.1-1.1-0.4-1.5
			c-0.3-0.3-0.7-0.5-1.2-0.5c-0.3,0-0.6,0.1-0.9,0.2c-0.2,0.2-0.4,0.4-0.6,0.7c-0.1,0.3-0.2,0.7-0.2,1.1c0,0.6,0.1,1.1,0.4,1.5
			S100,38.4,100.5,38.4z"/>
		<path class="st1" d="M106.1,39.2c-0.2,0-0.5,0-0.7-0.1s-0.5-0.1-0.7-0.2c-0.2-0.1-0.4-0.2-0.6-0.3c-0.1-0.1-0.2-0.1-0.2-0.2
			c0-0.1,0-0.2,0-0.3c0-0.1,0-0.2,0.1-0.2c0.1-0.1,0.1-0.1,0.2-0.1c0.1,0,0.2,0,0.3,0.1c0.2,0.1,0.5,0.2,0.7,0.3
			c0.3,0.1,0.5,0.1,0.8,0.1c0.4,0,0.7-0.1,0.9-0.2c0.2-0.1,0.3-0.3,0.3-0.5c0-0.2-0.1-0.3-0.2-0.4c-0.1-0.1-0.4-0.2-0.7-0.3
			l-0.9-0.2c-0.5-0.1-0.9-0.3-1.1-0.5c-0.2-0.3-0.4-0.6-0.4-1c0-0.3,0.1-0.5,0.2-0.7c0.1-0.2,0.3-0.4,0.4-0.5
			c0.2-0.2,0.4-0.3,0.7-0.4c0.3-0.1,0.6-0.1,0.9-0.1c0.3,0,0.6,0,0.9,0.1c0.3,0.1,0.5,0.2,0.8,0.3c0.1,0.1,0.1,0.1,0.2,0.2
			c0,0.1,0,0.2,0,0.2c0,0.1-0.1,0.2-0.1,0.2c-0.1,0.1-0.1,0.1-0.2,0.1c-0.1,0-0.2,0-0.3-0.1c-0.2-0.1-0.4-0.2-0.6-0.2
			c-0.2,0-0.4-0.1-0.6-0.1c-0.2,0-0.5,0-0.6,0.1c-0.2,0.1-0.3,0.2-0.4,0.3c-0.1,0.1-0.1,0.3-0.1,0.4c0,0.2,0.1,0.3,0.2,0.5
			s0.3,0.2,0.6,0.3l0.9,0.2c0.5,0.1,0.9,0.3,1.2,0.5c0.3,0.2,0.4,0.6,0.4,1c0,0.3-0.1,0.5-0.2,0.7c-0.1,0.2-0.3,0.4-0.4,0.5
			s-0.4,0.3-0.7,0.3C106.8,39.2,106.4,39.2,106.1,39.2z M106.6,33.1c-0.1,0.1-0.1,0.1-0.2,0.1c-0.1,0-0.1,0-0.2-0.1
			c-0.1,0-0.1-0.1-0.1-0.2c0-0.1,0-0.1,0-0.2l0.6-0.9c0.1-0.1,0.1-0.1,0.2-0.2c0.1,0,0.2,0,0.2,0c0.1,0,0.1,0.1,0.2,0.1
			c0.1,0.1,0.1,0.1,0.1,0.2c0,0.1,0,0.2-0.1,0.2L106.6,33.1z"/>
		<path class="st1" d="M111.8,39.2c-0.6,0-1.1-0.1-1.5-0.4c-0.4-0.2-0.7-0.6-1-1c-0.2-0.4-0.3-0.9-0.3-1.5c0-0.4,0.1-0.8,0.2-1.2
			c0.1-0.4,0.3-0.7,0.5-0.9c0.2-0.3,0.5-0.4,0.9-0.6c0.3-0.1,0.7-0.2,1.2-0.2c0.3,0,0.6,0,0.9,0.1c0.3,0.1,0.5,0.2,0.7,0.3
			c0.1,0.1,0.2,0.2,0.2,0.2c0,0.1,0,0.2,0,0.3c0,0.1-0.1,0.2-0.1,0.2s-0.1,0.1-0.2,0.1c-0.1,0-0.2,0-0.3-0.1
			c-0.2-0.1-0.3-0.2-0.5-0.2c-0.2,0-0.4-0.1-0.6-0.1c-0.4,0-0.7,0.1-1,0.2c-0.3,0.2-0.5,0.4-0.6,0.7c-0.1,0.3-0.2,0.6-0.2,1.1
			c0,0.4,0.1,0.8,0.2,1.1c0.1,0.3,0.3,0.5,0.6,0.7c0.3,0.2,0.6,0.2,1,0.2c0.2,0,0.4,0,0.6-0.1c0.2,0,0.4-0.1,0.6-0.2
			c0.1-0.1,0.2-0.1,0.3-0.1c0.1,0,0.2,0,0.2,0.1c0.1,0.1,0.1,0.1,0.1,0.2c0,0.1,0,0.2,0,0.3c0,0.1-0.1,0.2-0.2,0.2
			c-0.2,0.2-0.5,0.3-0.8,0.4S112.1,39.2,111.8,39.2z M112.1,33.1c-0.1,0.1-0.1,0.1-0.2,0.1c-0.1,0-0.1,0-0.2-0.1
			c-0.1,0-0.1-0.1-0.1-0.2c0-0.1,0-0.1,0-0.2l0.6-0.9c0.1-0.1,0.1-0.1,0.2-0.2c0.1,0,0.2,0,0.2,0c0.1,0,0.1,0.1,0.2,0.1
			c0,0.1,0.1,0.1,0.1,0.2c0,0.1,0,0.2-0.1,0.2L112.1,33.1z"/>
		<path class="st1" d="M72.6,48.5c-0.1,0-0.2,0-0.3-0.1c-0.1-0.1-0.1-0.1-0.2-0.2c0-0.1,0-0.2,0-0.3c0-0.1,0.1-0.2,0.2-0.4l3-4.1
			v0.3h-2.8c-0.1,0-0.3,0-0.3-0.1c-0.1-0.1-0.1-0.2-0.1-0.3c0-0.1,0-0.2,0.1-0.3c0.1-0.1,0.2-0.1,0.3-0.1h3.3c0.1,0,0.2,0,0.3,0.1
			c0.1,0.1,0.1,0.1,0.2,0.2c0,0.1,0,0.2,0,0.3c0,0.1-0.1,0.2-0.2,0.4l-3,4.1v-0.3H76c0.1,0,0.3,0,0.3,0.1c0.1,0.1,0.1,0.2,0.1,0.3
			c0,0.1,0,0.2-0.1,0.3c-0.1,0.1-0.2,0.1-0.3,0.1H72.6z"/>
		<path class="st1" d="M77.1,48.6c-0.1,0-0.2,0-0.3-0.1c-0.1-0.1-0.1-0.1-0.1-0.2c0-0.1,0-0.2,0.1-0.3l2.1-4.6
			c0.1-0.2,0.2-0.3,0.2-0.3s0.2-0.1,0.3-0.1c0.1,0,0.2,0,0.3,0.1c0.1,0.1,0.2,0.2,0.2,0.3l2.1,4.6c0.1,0.1,0.1,0.2,0.1,0.3
			c0,0.1-0.1,0.2-0.1,0.2c-0.1,0.1-0.2,0.1-0.3,0.1c-0.1,0-0.3,0-0.3-0.1c-0.1-0.1-0.2-0.2-0.2-0.3l-0.5-1.2l0.4,0.3h-3.3l0.4-0.3
			l-0.5,1.2c-0.1,0.2-0.1,0.3-0.2,0.3C77.4,48.5,77.3,48.6,77.1,48.6z M79.4,44l-1.1,2.6l-0.2-0.3h2.6l-0.2,0.3L79.4,44L79.4,44z"/>
		<path class="st1" d="M85.6,48.6c-0.2,0-0.3,0-0.4-0.1c-0.1-0.1-0.1-0.2-0.1-0.4v-4.6c0-0.2,0-0.3,0.1-0.4c0.1-0.1,0.2-0.1,0.4-0.1
			h1.9c0.6,0,1.1,0.2,1.4,0.5c0.3,0.3,0.5,0.7,0.5,1.3c0,0.5-0.2,1-0.5,1.3c-0.3,0.3-0.8,0.5-1.4,0.5h-1.4v1.6c0,0.2,0,0.3-0.1,0.4
			C85.9,48.5,85.8,48.6,85.6,48.6z M86.1,45.6h1.3c0.4,0,0.6-0.1,0.8-0.2c0.2-0.2,0.3-0.4,0.3-0.7c0-0.3-0.1-0.5-0.3-0.7
			c-0.2-0.2-0.5-0.2-0.8-0.2h-1.3V45.6z"/>
		<path class="st1" d="M92.7,48.6c-0.5,0-1-0.1-1.4-0.4s-0.7-0.6-0.9-1c-0.2-0.4-0.3-0.9-0.3-1.5c0-0.4,0.1-0.8,0.2-1.2
			c0.1-0.4,0.3-0.7,0.5-0.9c0.2-0.3,0.5-0.4,0.8-0.6c0.3-0.1,0.7-0.2,1.1-0.2c0.5,0,1,0.1,1.4,0.4s0.7,0.6,0.9,1
			c0.2,0.4,0.3,0.9,0.3,1.5c0,0.4-0.1,0.8-0.2,1.2s-0.3,0.7-0.5,0.9s-0.5,0.4-0.8,0.6C93.5,48.5,93.1,48.6,92.7,48.6z M92.7,47.7
			c0.3,0,0.6-0.1,0.9-0.2c0.2-0.2,0.4-0.4,0.6-0.7c0.1-0.3,0.2-0.7,0.2-1.1c0-0.6-0.1-1.1-0.4-1.5c-0.3-0.3-0.7-0.5-1.2-0.5
			c-0.3,0-0.6,0.1-0.9,0.2c-0.2,0.2-0.4,0.4-0.6,0.7c-0.1,0.3-0.2,0.7-0.2,1.1c0,0.6,0.1,1.1,0.4,1.5C91.8,47.5,92.2,47.7,92.7,47.7
			z"/>
		<path class="st1" d="M97,48.5c-0.2,0-0.3,0-0.4-0.1c-0.1-0.1-0.1-0.2-0.1-0.4v-4.5c0-0.2,0-0.3,0.1-0.4c0.1-0.1,0.2-0.1,0.4-0.1
			h1.9c0.4,0,0.7,0.1,1,0.2s0.5,0.3,0.6,0.5c0.1,0.2,0.2,0.5,0.2,0.8c0,0.3-0.1,0.6-0.3,0.9c-0.2,0.2-0.5,0.4-0.8,0.5v-0.1
			c0.4,0.1,0.7,0.2,0.9,0.4c0.2,0.2,0.3,0.5,0.3,0.9c0,0.5-0.2,0.9-0.5,1.2c-0.3,0.3-0.8,0.4-1.4,0.4H97z M97.4,45.3h1.3
			c0.3,0,0.6-0.1,0.8-0.2c0.2-0.1,0.3-0.3,0.3-0.6c0-0.3-0.1-0.5-0.3-0.6c-0.2-0.1-0.4-0.2-0.8-0.2h-1.3V45.3z M97.4,47.7h1.4
			c0.4,0,0.6-0.1,0.8-0.2c0.2-0.1,0.3-0.3,0.3-0.6c0-0.3-0.1-0.5-0.3-0.6c-0.2-0.1-0.4-0.2-0.8-0.2h-1.4V47.7z"/>
		<path class="st1" d="M102.4,48.6c-0.2,0-0.3,0-0.4-0.1c-0.1-0.1-0.1-0.2-0.1-0.4v-4.6c0-0.2,0-0.3,0.1-0.4
			c0.1-0.1,0.2-0.1,0.4-0.1h1.9c0.6,0,1.1,0.1,1.4,0.4c0.3,0.3,0.5,0.7,0.5,1.2c0,0.3-0.1,0.6-0.2,0.9c-0.2,0.2-0.4,0.4-0.7,0.6
			c-0.3,0.1-0.6,0.2-1,0.2l0.1-0.1h0.3c0.2,0,0.4,0.1,0.6,0.2c0.2,0.1,0.3,0.3,0.4,0.5l0.6,1.1c0.1,0.1,0.1,0.2,0.1,0.3
			c0,0.1,0,0.2-0.1,0.3c-0.1,0.1-0.2,0.1-0.3,0.1s-0.3,0-0.3-0.1c-0.1-0.1-0.2-0.2-0.2-0.3l-0.8-1.5c-0.1-0.2-0.2-0.3-0.3-0.4
			c-0.1-0.1-0.3-0.1-0.5-0.1h-0.8v1.8c0,0.2,0,0.3-0.1,0.4C102.7,48.5,102.6,48.6,102.4,48.6z M102.9,45.5h1.2
			c0.4,0,0.6-0.1,0.8-0.2c0.2-0.2,0.3-0.4,0.3-0.7c0-0.3-0.1-0.5-0.3-0.7c-0.2-0.2-0.5-0.2-0.8-0.2h-1.2V45.5z"/>
		<path class="st1" d="M107.3,48.6c-0.1,0-0.2,0-0.3-0.1c-0.1-0.1-0.1-0.1-0.1-0.2c0-0.1,0-0.2,0.1-0.3l2.1-4.6
			c0.1-0.2,0.2-0.3,0.2-0.3s0.2-0.1,0.3-0.1c0.1,0,0.2,0,0.3,0.1c0.1,0.1,0.2,0.2,0.2,0.3l2.1,4.6c0.1,0.1,0.1,0.2,0.1,0.3
			c0,0.1-0.1,0.2-0.1,0.2c-0.1,0.1-0.2,0.1-0.3,0.1c-0.1,0-0.3,0-0.3-0.1c-0.1-0.1-0.2-0.2-0.2-0.3l-0.5-1.2l0.4,0.3h-3.3l0.4-0.3
			l-0.5,1.2c-0.1,0.2-0.1,0.3-0.2,0.3C107.5,48.5,107.4,48.6,107.3,48.6z M109.6,44l-1.1,2.6l-0.2-0.3h2.6l-0.2,0.3L109.6,44
			L109.6,44z"/>
		<path class="st1" d="M113.6,48.6c-0.2,0-0.3,0-0.4-0.1c-0.1-0.1-0.1-0.2-0.1-0.4v-4.7c0-0.2,0-0.3,0.1-0.4
			c0.1-0.1,0.2-0.1,0.3-0.1c0.1,0,0.2,0,0.3,0.1c0.1,0,0.1,0.1,0.2,0.2l3,3.9h-0.2v-3.7c0-0.2,0-0.3,0.1-0.4
			c0.1-0.1,0.2-0.1,0.4-0.1c0.2,0,0.3,0,0.3,0.1c0.1,0.1,0.1,0.2,0.1,0.4v4.8c0,0.1,0,0.3-0.1,0.3c-0.1,0.1-0.2,0.1-0.3,0.1
			c-0.1,0-0.2,0-0.3-0.1c-0.1,0-0.1-0.1-0.2-0.2l-3-3.9h0.2v3.7c0,0.2,0,0.3-0.1,0.4C113.9,48.5,113.7,48.6,113.6,48.6z"/>
		<path class="st1" d="M119.6,48.6c-0.2,0-0.3,0-0.4-0.1c-0.1-0.1-0.1-0.2-0.1-0.4v-4.7c0-0.2,0-0.3,0.1-0.4
			c0.1-0.1,0.2-0.1,0.4-0.1s0.3,0,0.4,0.1c0.1,0.1,0.1,0.2,0.1,0.4v4.7c0,0.2,0,0.3-0.1,0.4C119.8,48.5,119.7,48.6,119.6,48.6z"/>
		<path class="st1" d="M121.8,48.5c-0.2,0-0.3,0-0.4-0.1c-0.1-0.1-0.1-0.2-0.1-0.4v-4.5c0-0.2,0-0.3,0.1-0.4
			c0.1-0.1,0.2-0.1,0.4-0.1h2.8c0.1,0,0.2,0,0.3,0.1c0.1,0.1,0.1,0.2,0.1,0.3c0,0.1,0,0.2-0.1,0.3c-0.1,0.1-0.2,0.1-0.3,0.1h-2.4
			v1.5h2.2c0.1,0,0.2,0,0.3,0.1c0.1,0.1,0.1,0.2,0.1,0.3c0,0.1,0,0.2-0.1,0.3c-0.1,0.1-0.2,0.1-0.3,0.1h-2.2v1.6h2.4
			c0.1,0,0.2,0,0.3,0.1c0.1,0.1,0.1,0.2,0.1,0.3c0,0.1,0,0.2-0.1,0.3c-0.1,0.1-0.2,0.1-0.3,0.1H121.8z"/>
		<path class="st1" d="M126.5,48.6c-0.1,0-0.3,0-0.3-0.1c-0.1-0.1-0.1-0.2-0.1-0.3v-4.8c0-0.2,0-0.3,0.1-0.4
			c0.1-0.1,0.2-0.1,0.3-0.1c0.1,0,0.2,0,0.3,0.1c0.1,0.1,0.1,0.1,0.2,0.3l2,3.6h-0.3l2-3.6c0.1-0.1,0.1-0.2,0.2-0.3
			c0.1,0,0.2-0.1,0.3-0.1c0.1,0,0.3,0,0.3,0.1s0.1,0.2,0.1,0.4v4.8c0,0.1,0,0.3-0.1,0.3c-0.1,0.1-0.2,0.1-0.3,0.1
			c-0.1,0-0.3,0-0.3-0.1s-0.1-0.2-0.1-0.3v-3.7h0.2l-1.7,3c-0.1,0.1-0.1,0.2-0.2,0.2c-0.1,0-0.1,0.1-0.2,0.1c-0.1,0-0.2,0-0.2-0.1
			c-0.1,0-0.1-0.1-0.2-0.2l-1.7-3h0.2v3.7c0,0.1,0,0.3-0.1,0.3C126.7,48.5,126.6,48.6,126.5,48.6z"/>
	</g>
</g>
</svg>
