<svg version="1.1" id="Warstwa_1" xmlns="http://www.w3.org/2000/svg" x="0" y="0" viewBox="0 0 158.2 65" xml:space="preserve"><style>.st1{fill:#fff}</style><path fill="#1d1e1b" d="M0 0h158.2v65H0z"/><path class="st1" d="M32.6 42.9c-2.7-4-5.8-8.3-9.3-11.8 3.6-3.2 6.3-5.9 7.4-7.2l-1.7-.5v-.8h6.7c-2.8 2-5.8 4.6-9.1 7.7 2.6 3.5 6.2 8.2 9.2 11.5l1.4.2v.8h-4.6zM64.2 33.5c-.1-6.3-3.3-9.6-8.2-9.6-4.8 0-7.8 3.2-7.8 8.5 0 5.9 3.3 9.4 8.6 9.4v1.6h-.6c-6.6 0-11.2-3.9-11.2-10.6 0-6.6 4.8-10.6 11.2-10.6 7.2 0 11.2 4.3 11.2 11.3h-3.2zM78.7 43.1c-.4 0-.7 0-1.1-.1v-1.7c4.8.3 6-1.5 6-4.1 0-2.8-1.3-4-6-4v-1.7c3.7 0 5-1.1 5-3.6 0-2.4-1.1-3.7-4.6-3.7h-.4v-1.7c.5-.1.9-.1 1.3-.1 4.5-.1 6.6 2.1 6.6 5 0 1.9-.9 3.5-2.6 4.5 2.4.7 3.7 2.3 3.7 5-.1 3.7-2.6 6.2-7.9 6.2M106.4 43.3c-2.8 0-5.2-.8-6.7-2.4-1.5-1.5-1.9-3.6-1.9-6.2 0-1.3.1-3 .1-5.1 0-2.2-.1-4.8-.3-7.1h5.3v.9l-2 .4c-.3 3.4-.2 6.4-.2 8.3 0 2.2-.2 5.3 1.4 7.1 1.2 1.5 2.8 2.2 4.9 2.2 4.1 0 5.9-2.3 5.9-6.4h1.7c-.7 5.8-3.2 8.3-8.2 8.3M130.9 37.2c-.2-1.6-.7-2.4-2.3-2.9l-2.8-.8c-3.1-.8-4.8-2.4-4.8-5.1 0-3.4 2.5-5.9 6.9-6.3v1.7c-2.7 0-4.1 1.4-4.1 3.5 0 2.4 1.4 3.2 3.3 3.6l2.2.6c2.2.6 4.3 1.7 4.3 5.6l-2.7.1zM78.6 54.9c-.4-.1-.7-.3-.9-.5l.2-.5c.2.2.5.4.8.5s.7.2 1 .2c.5 0 .9-.1 1.1-.3.2-.2.4-.4.4-.7 0-.2-.1-.4-.2-.5-.1-.1-.3-.2-.5-.3s-.5-.2-.8-.2c-.4-.1-.8-.2-1-.3-.2-.1-.5-.2-.6-.5-.2-.2-.3-.5-.3-.8 0-.3.1-.5.2-.8s.4-.4.7-.6a3.73 3.73 0 0 1 2.1-.1c.3.1.6.2.8.4l-.2.5c-.2-.2-.5-.3-.8-.3-.3-.1-.5-.1-.8-.1-.5 0-.9.1-1.1.3s-.4.4-.4.7c0 .2.1.4.2.5.1.1.3.2.5.3.2.1.5.2.8.2.4.1.7.2 1 .3.2.1.5.2.6.5.2.2.3.5.3.8 0 .3-.1.5-.2.8s-.4.4-.7.5c-.3.1-.7.2-1.2.2-.2 0-.6-.1-1-.2zM91.4 50h-2v-.5H94v.5h-2v5h-.6v-5zM103 54.7c-.4-.2-.8-.6-1.1-1-.2-.4-.4-.9-.4-1.5s.1-1 .4-1.5c.2-.4.6-.8 1.1-1s.9-.4 1.5-.4 1.1.1 1.5.4.8.6 1.1 1c.3.4.4.9.4 1.5s-.1 1-.4 1.5c-.3.4-.6.8-1.1 1-.4.2-.9.4-1.5.4s-1.1-.1-1.5-.4zm2.7-.4c.4-.2.6-.5.8-.8.2-.4.3-.8.3-1.2s-.1-.8-.3-1.2c-.2-.4-.5-.6-.8-.8-.4-.2-.8-.3-1.2-.3-.4 0-.8.1-1.2.3s-.6.5-.8.8c-.2.3-.3.8-.3 1.2s.1.8.3 1.2c.2.3.5.6.8.8s.8.3 1.2.3c.4 0 .8-.1 1.2-.3zM119.8 55l-1.3-1.8h-1.9V55h-.6v-5.6h2.1c.7 0 1.3.2 1.7.5.4.3.6.8.6 1.4 0 .4-.1.8-.3 1.1s-.5.5-.9.7l1.4 1.9h-.8zm-.5-2.6c.3-.2.4-.6.4-1 0-.5-.2-.8-.4-1s-.7-.4-1.3-.4h-1.5v2.8h1.5c.6 0 1-.2 1.3-.4zM132.9 54.5v.5h-4v-5.6h3.8v.6h-3.2v2h2.9v.5h-2.9v2.1l3.4-.1z"/></svg>